<svg xmlns="http://www.w3.org/2000/svg" width="273.469" height="96" viewBox="0 0 273.469 96">
  <metadata><?xpacket begin="﻿" id="W5M0MpCehiHzreSzNTczkc9d"?>
<x:xmpmeta xmlns:x="adobe:ns:meta/" x:xmptk="Adobe XMP Core 5.6-c142 79.160924, 2017/07/13-01:06:39        ">
   <rdf:RDF xmlns:rdf="http://www.w3.org/1999/02/22-rdf-syntax-ns#">
      <rdf:Description rdf:about=""/>
   </rdf:RDF>
</x:xmpmeta>
                                                                                                    
                                                                                                    
                                                                                                    
                                                                                                    
                                                                                                    
                                                                                                    
                                                                                                    
                                                                                                    
                                                                                                    
                                                                                                    
                                                                                                    
                                                                                                    
                                                                                                    
                                                                                                    
                                                                                                    
                                                                                                    
                                                                                                    
                                                                                                    
                                                                                                    
                                                                                                    
                           
<?xpacket end="w"?></metadata>
<defs>
    <style>
      .cls-1 {
        fill: #fff;
        fill-rule: evenodd;
      }
    </style>
  </defs>
  <path id="tagbag" class="cls-1" d="M179.705,402.87a12.818,12.818,0,0,1,.281-2.485l5.39-25.265H198.6l2.344-10.735H187.673l2.3-11.156h-9.094l-6.187,11.063-9.188,3.937-1.359,6.891h7.125l-5.391,25.265a27.885,27.885,0,0,0-.562,5.25q0,6.188,3.305,9.141t10.336,2.953a28.717,28.717,0,0,0,12.468-2.484V404.7a23.284,23.284,0,0,1-7.593,1.64q-4.126,0-4.125-3.468h0ZM224.58,410h0.188l-0.657,6.8h10.735L246,364.385H235.127l-2.672,6.7H232.08a13.184,13.184,0,0,0-5.133-5.718A15.056,15.056,0,0,0,219.1,363.4a18.3,18.3,0,0,0-12.047,4.617,32.389,32.389,0,0,0-8.86,13.031,47.093,47.093,0,0,0-3.375,17.7q0,9,3.961,13.992a13.1,13.1,0,0,0,10.852,4.992q8.671,0,14.953-7.734h0Zm-13.9-5.719q-1.572-2.062-1.571-6.188a36.951,36.951,0,0,1,1.711-10.968,24.887,24.887,0,0,1,4.594-8.907q2.883-3.375,6.07-3.375a5.874,5.874,0,0,1,4.758,2.18,8.348,8.348,0,0,1,1.805,5.508,37.64,37.64,0,0,1-1.828,12.164,22.752,22.752,0,0,1-4.828,8.508q-3,3.141-6.235,3.14A5.289,5.289,0,0,1,210.682,404.276Zm65.984-39.8a29.052,29.052,0,0,0-7.781-1.078q-10.125,0-16.008,5.461t-5.883,14.789a16.122,16.122,0,0,0,1.454,7.172,14.766,14.766,0,0,0,4.5,5.25,20.277,20.277,0,0,0-6.868,4.617,8.495,8.495,0,0,0-2.086,5.742,6.982,6.982,0,0,0,3.469,6.235q-6.844,2.25-10.055,5.7a11.651,11.651,0,0,0-3.21,8.226,11.026,11.026,0,0,0,5.46,9.727q5.462,3.538,15.211,3.539,13.595,0,20.907-5.25t7.312-15.141q0-5.625-3.492-8.6T268.463,406.9l-6.422-.844a13.9,13.9,0,0,1-4.172-1.078,2.387,2.387,0,0,1-1.406-2.3q0-2.391,3.938-3.656a19.44,19.44,0,0,0,4.64.469q9.75,0,15.422-5.321t5.672-14.461a18.8,18.8,0,0,0-.75-5.531l8.156-1.922,1.641-7.781H276.666Zm-14.625,53.25q4.923,0.656,6.446,1.641a3.155,3.155,0,0,1,1.523,2.812,6.575,6.575,0,0,1-3.609,5.953q-3.61,2.111-10.688,2.11-9.094,0-9.094-5.391a6.238,6.238,0,0,1,2.555-5.109,15.319,15.319,0,0,1,7.524-2.672Zm10.969-39.891a17.216,17.216,0,0,1-2.18,9.071q-2.179,3.585-5.695,3.586-4.828,0-4.828-5.578a16.739,16.739,0,0,1,2.226-8.977q2.226-3.587,5.836-3.586,4.641,0,4.641,5.484h0Zm42.292-12.75a24.737,24.737,0,0,0-6.68,6.282h-0.375a115.143,115.143,0,0,0,3.938-14.016l2.906-13.5H300.982l-15.469,72.938h10.828l2.719-6.7h0.375q3.843,7.641,12.937,7.641a18.305,18.305,0,0,0,12.328-4.875,32.611,32.611,0,0,0,8.766-13.195,47.756,47.756,0,0,0,3.187-17.227q0-8.906-3.961-13.969a12.979,12.979,0,0,0-10.8-5.062A13.287,13.287,0,0,0,315.3,365.088Zm7.055,18a37.318,37.318,0,0,1-1.758,11.133,24.089,24.089,0,0,1-4.617,8.883q-2.861,3.234-6,3.234a5.7,5.7,0,0,1-4.782-2.25,9.572,9.572,0,0,1-1.734-6,35.657,35.657,0,0,1,1.875-11.742,23,23,0,0,1,4.781-8.461q2.906-3.047,6.094-3.047,6.139,0,6.141,8.25h0ZM367.022,410h0.187l-0.656,6.8h10.734l11.157-52.407H377.569l-2.672,6.7h-0.375a13.184,13.184,0,0,0-5.133-5.718,15.057,15.057,0,0,0-7.852-1.969,18.3,18.3,0,0,0-12.046,4.617,32.379,32.379,0,0,0-8.86,13.031,47.093,47.093,0,0,0-3.375,17.7q0,9,3.961,13.992a13.1,13.1,0,0,0,10.852,4.992q8.671,0,14.953-7.734h0Zm-13.9-5.719q-1.57-2.062-1.57-6.188a36.951,36.951,0,0,1,1.711-10.968,24.871,24.871,0,0,1,4.594-8.907q2.883-3.375,6.07-3.375a5.874,5.874,0,0,1,4.758,2.18,8.348,8.348,0,0,1,1.805,5.508,37.612,37.612,0,0,1-1.829,12.164,22.725,22.725,0,0,1-4.828,8.508q-3,3.141-6.234,3.14A5.292,5.292,0,0,1,353.123,404.276Zm65.985-39.8a29.057,29.057,0,0,0-7.781-1.078q-10.125,0-16.008,5.461t-5.883,14.789a16.122,16.122,0,0,0,1.453,7.172,14.786,14.786,0,0,0,4.5,5.25,20.282,20.282,0,0,0-6.867,4.617,8.495,8.495,0,0,0-2.086,5.742,6.982,6.982,0,0,0,3.469,6.235q-6.844,2.25-10.055,5.7a11.652,11.652,0,0,0-3.211,8.226,11.027,11.027,0,0,0,5.461,9.727q5.46,3.538,15.211,3.539,13.593,0,20.906-5.25t7.313-15.141q0-5.625-3.492-8.6T410.905,406.9l-6.422-.844a13.9,13.9,0,0,1-4.172-1.078,2.387,2.387,0,0,1-1.406-2.3q0-2.391,3.937-3.656a19.455,19.455,0,0,0,4.641.469q9.75,0,15.422-5.321t5.672-14.461a18.831,18.831,0,0,0-.75-5.531l8.156-1.922,1.641-7.781H419.108Zm-14.625,53.25q4.921,0.656,6.445,1.641a3.156,3.156,0,0,1,1.524,2.812,6.576,6.576,0,0,1-3.61,5.953q-3.609,2.111-10.687,2.11-9.094,0-9.094-5.391a6.238,6.238,0,0,1,2.555-5.109,15.319,15.319,0,0,1,7.523-2.672Zm10.969-39.891a17.216,17.216,0,0,1-2.18,9.071q-2.179,3.585-5.695,3.586-4.828,0-4.828-5.578a16.739,16.739,0,0,1,2.226-8.977q2.226-3.587,5.836-3.586,4.641,0,4.641,5.484h0Z" transform="translate(-164.156 -343.844)"/>
</svg>
